<?xml version="1.0" encoding="utf-8"?>
<!-- Generator: Adobe Illustrator 28.0.0, SVG Export Plug-In . SVG Version: 6.00 Build 0)  -->
<svg version="1.1" id="Calque_1" xmlns="http://www.w3.org/2000/svg" xmlns:xlink="http://www.w3.org/1999/xlink" x="0px" y="0px"
	 viewBox="0 0 128 128" style="enable-background:new 0 0 128 128;" xml:space="preserve">
<style type="text/css">
	.st0{fill:#676766;}
	.st1{fill:#FFFFFF;}
	.st2{fill:#70C8F2;}
</style>
<path class="st0" d="M116,108.32H12c-6.6,0-12-5.4-12-12V31.68c0-6.6,5.4-12,12-12h104c6.6,0,12,5.4,12,12v64.64
	C128,102.92,122.6,108.32,116,108.32z"/>
<path class="st1" d="M41.24,63.63c-0.01-0.08-0.03-0.15-0.04-0.23c-0.03-0.17-0.06-0.34-0.11-0.51c-0.01-0.03-0.02-0.05-0.03-0.08
	c-0.16-0.48-0.41-0.93-0.76-1.32L20.01,37.74c-1.35-1.57-3.74-1.76-5.31-0.42c-1.57,1.35-1.76,3.74-0.42,5.31l16.2,18.96
	c0.31,0.37,0.54,0.77,0.69,1.21c0.01,0.03,0.02,0.05,0.03,0.08c0.05,0.17,0.08,0.34,0.11,0.51c0.01,0.08,0.03,0.15,0.04,0.23
	c0.01,0.12,0.01,0.25,0.01,0.37c0,0.12,0.01,0.25-0.01,0.37c-0.01,0.08-0.03,0.15-0.04,0.23c-0.03,0.17-0.06,0.34-0.11,0.51
	c-0.01,0.03-0.02,0.05-0.03,0.08c-0.14,0.44-0.38,0.85-0.69,1.21l-16.2,18.96c-1.35,1.57-1.16,3.96,0.42,5.31
	c1.57,1.35,3.96,1.16,5.31-0.42l20.29-23.74c0.35-0.39,0.61-0.84,0.77-1.32c0.01-0.03,0.02-0.05,0.03-0.08
	c0.05-0.17,0.08-0.34,0.11-0.51c0.01-0.08,0.03-0.15,0.04-0.23c0.01-0.12,0.01-0.25,0.01-0.37C41.24,63.88,41.25,63.75,41.24,63.63z
	"/>
<g>
	<path class="st2" d="M116.27,64c-17.11,5.55-21.61,10.04-27.15,27.15C83.57,74.04,79.07,69.55,61.96,64
		c17.11-5.55,21.61-10.04,27.15-27.15C94.66,53.96,99.16,58.45,116.27,64z"/>
</g>
<g>
	<path class="st2" d="M72.94,43.07c-8.6,2.79-10.86,5.05-13.65,13.65c-2.79-8.6-5.05-10.86-13.65-13.65
		c8.6-2.79,10.86-5.05,13.65-13.65C62.08,38.03,64.34,40.29,72.94,43.07z"/>
</g>
<g>
	<path class="st2" d="M74.3,83.56c-5.61,1.82-7.09,3.29-8.91,8.91c-1.82-5.61-3.29-7.09-8.91-8.91c5.61-1.82,7.09-3.29,8.91-8.91
		C67.21,80.26,68.69,81.74,74.3,83.56z"/>
</g>
</svg>
