<?xml version="1.0" encoding="UTF-8"?><svg id="uuid-1bf6cdbf-bd4f-4e4f-b1a5-8064b6df67c0" xmlns="http://www.w3.org/2000/svg" viewBox="0 0 54 54"><rect x="0" y="0" width="54" height="54" rx="5.27" ry="5.27" fill="#3178c6" stroke-width="0"/><path d="m33.43,42.97v5.28c.86.44,1.87.77,3.05.99s2.41.33,3.71.33,2.47-.12,3.61-.36c1.14-.24,2.14-.64,3-1.2.86-.56,1.54-1.28,2.04-2.18s.75-2,.75-3.32c0-.96-.14-1.8-.43-2.52s-.7-1.36-1.24-1.92c-.54-.56-1.19-1.06-1.94-1.51s-1.6-.87-2.55-1.26c-.69-.29-1.31-.56-1.87-.83-.55-.27-1.02-.54-1.4-.82-.39-.28-.68-.58-.89-.89-.21-.31-.31-.67-.31-1.06,0-.36.09-.69.28-.98s.45-.54.79-.75c.34-.21.76-.37,1.25-.49.5-.12,1.05-.17,1.65-.17.44,0,.91.03,1.39.1.49.07.98.17,1.48.31.5.14.98.31,1.44.52.47.21.9.45,1.3.73v-4.93c-.8-.31-1.68-.54-2.63-.68s-2.04-.22-3.28-.22-2.44.13-3.57.4-2.11.69-2.96,1.26c-.85.57-1.53,1.3-2.02,2.19-.5.89-.74,1.94-.74,3.18,0,1.57.45,2.91,1.36,4.03.91,1.11,2.29,2.05,4.13,2.82.73.3,1.4.59,2.03.87s1.17.58,1.63.89c.46.31.82.64,1.08,1.01.26.36.4.78.4,1.24,0,.34-.08.66-.25.95s-.42.54-.75.76-.75.38-1.25.5c-.5.12-1.09.18-1.76.18-1.14,0-2.28-.2-3.4-.6-1.12-.4-2.16-1-3.12-1.81h0Zm-8.88-13.01h6.77v-4.33H12.45v4.33h6.74v19.29h5.37v-19.29Z" fill="#fff" fill-rule="evenodd" stroke-width="0"/></svg>