<?xml version="1.0" encoding="UTF-8"?><svg id="uuid-dfd70e69-5c3d-4308-b5e9-5e5985472015" xmlns="http://www.w3.org/2000/svg" xmlns:xlink="http://www.w3.org/1999/xlink" viewBox="0 0 53.85 53.92"><defs><linearGradient id="uuid-3875199b-0ca5-49f7-b754-3942b195c054" x1="-634.08" y1="399.58" x2="-633.09" y2="398.39" gradientTransform="translate(20223.92 11351.09) scale(31.88 -28.41)" gradientUnits="userSpaceOnUse"><stop offset="0" stop-color="#41d1ff"/><stop offset="1" stop-color="#bd34fe"/></linearGradient><linearGradient id="uuid-35913586-ebb1-43b8-8c04-04848ce874ff" x1="-608.89" y1="398.61" x2="-608.78" y2="397.14" gradientTransform="translate(8929.93 10622.1) scale(14.62 -26.65)" gradientUnits="userSpaceOnUse"><stop offset="0" stop-color="#ffea83"/><stop offset=".08" stop-color="#ffdd35"/><stop offset="1" stop-color="#ffa800"/></linearGradient></defs><path d="m53.67,7.98l-25.3,45.23c-.52.93-1.86.94-2.39.01L.18,7.98c-.58-1.01.29-2.24,1.44-2.03l25.32,4.53c.16.03.33.03.49,0l24.79-4.52c1.14-.21,2.01,1.01,1.45,2.02Z" fill="url(#uuid-3875199b-0ca5-49f7-b754-3942b195c054)" stroke-width="0"/><path d="m39,.01l-18.72,3.67c-.31.06-.54.32-.55.63l-1.15,19.45c-.02.38.27.7.65.73.07,0,.13,0,.2-.02l5.21-1.2c.49-.11.93.32.83.81l-1.55,7.58c-.1.51.37.95.87.8l3.22-.98c.5-.15.98.29.87.8l-2.46,11.91c-.15.75.84,1.15,1.25.51l.28-.43,15.25-30.44c.26-.51-.19-1.09-.74-.98l-5.36,1.04c-.5.1-.93-.37-.79-.87l3.5-12.14c.14-.49-.29-.96-.79-.87h0Z" fill="url(#uuid-35913586-ebb1-43b8-8c04-04848ce874ff)" stroke-width="0"/></svg>